<?xml version="1.0" encoding="iso-8859-1"?>
<!-- Generator: Adobe Illustrator 19.0.0, SVG Export Plug-In . SVG Version: 6.00 Build 0)  -->
<svg version="1.1" id="Capa_1" xmlns="http://www.w3.org/2000/svg" xmlns:xlink="http://www.w3.org/1999/xlink" x="0px" y="0px"
	 viewBox="0 0 512.005 512.005" style="enable-background:new 0 0 512.005 512.005;" xml:space="preserve">
<path style="fill:#303C42;" d="M398.221,64.609l-181.333-64c-2.292-0.812-4.813-0.812-7.104,0l-181.333,64
	c-4.26,1.51-7.115,5.542-7.115,10.063v128c0,165.646,24.563,226.188,187.198,308.188c1.51,0.76,3.156,1.146,4.802,1.146
	c1.646,0,3.292-0.385,4.802-1.146c162.635-82,187.198-142.542,187.198-308.188v-128C405.336,70.151,402.482,66.12,398.221,64.609z"
	/>
<path style="fill:#1E88E5;" d="M213.336,21.984L42.669,82.224v120.448c0,19.303,0.318,36.962,1.115,53.328h169.552V21.984z"/>
<path style="fill:#01579B;" d="M382.888,256c0.797-16.366,1.115-34.025,1.115-53.328V82.224l-170.667-60.24V256H382.888z"/>
<path style="fill:#1E88E5;" d="M213.336,256v233.38C345.47,422.014,377.134,374.145,382.888,256H213.336z"/>
<path style="fill:#01579B;" d="M43.784,256c5.754,118.145,37.418,166.014,169.552,233.38V256H43.784z"/>
<path style="opacity:0.1;enable-background:new    ;" d="M213.336,448C62.898,371.302,42.669,341.286,42.669,182.63v20.042
	c0,158.656,20.229,210.01,170.667,286.708c150.438-76.698,170.667-128.052,170.667-286.708V182.63
	C384.003,341.286,363.773,371.302,213.336,448z"/>
<circle style="fill:#303C42;" cx="373.336" cy="394.669" r="117.333"/>
<circle style="fill:#E6E6E6;" cx="373.336" cy="394.669" r="96"/>
<g>
	<path style="fill:#303C42;" d="M347.253,382.208c4.896-3.271,6.229-9.885,2.958-14.792c-3.292-4.927-9.938-6.208-14.792-2.958
		l-9.896,6.604c8.708-17.604,26.875-29.729,47.813-29.729c17.75,0,34.271,8.792,44.229,23.521c3.313,4.885,9.938,6.167,14.813,2.865
		c4.875-3.292,6.167-9.927,2.854-14.802C421.315,332.302,398.169,320,373.336,320c-41.167,0-74.667,33.5-74.667,74.667
		c0,3.938,2.167,7.552,5.625,9.406c1.583,0.844,3.313,1.26,5.042,1.26c2.063,0,4.125-0.604,5.917-1.792L347.253,382.208z"/>
	<path style="fill:#303C42;" d="M442.378,385.26c-3.479-1.844-7.667-1.656-10.958,0.531l-32,21.333
		c-4.896,3.271-6.229,9.885-2.958,14.792c3.292,4.917,9.917,6.188,14.792,2.958l9.896-6.604C412.44,435.875,394.273,448,373.336,448
		c-17.75,0-34.271-8.792-44.229-23.521c-3.313-4.896-9.938-6.167-14.813-2.865c-4.875,3.292-6.167,9.927-2.854,14.802
		c13.917,20.615,37.063,32.917,61.896,32.917c41.167,0,74.667-33.5,74.667-74.667C448.003,390.729,445.836,387.115,442.378,385.26z"
		/>
</g>
<linearGradient id="SVGID_1_" gradientUnits="userSpaceOnUse" x1="-47.2066" y1="639.8679" x2="-22.8815" y2="628.5249" gradientTransform="matrix(21.3333 0 0 -21.3333 996.2804 13791.7256)">
	<stop  offset="0" style="stop-color:#FFFFFF;stop-opacity:0.2"/>
	<stop  offset="1" style="stop-color:#FFFFFF;stop-opacity:0"/>
</linearGradient>
<path style="fill:url(#SVGID_1_);" d="M402.344,281.111c2.155-23.384,2.992-49.202,2.992-78.439v-128
	c0-4.521-2.854-8.552-7.115-10.063l-181.333-64c-2.292-0.812-4.813-0.812-7.104,0l-181.333,64c-4.26,1.51-7.115,5.542-7.115,10.063
	v128c0,165.646,24.563,226.188,187.198,308.188c1.51,0.76,3.156,1.146,4.802,1.146c1.646,0,3.292-0.385,4.802-1.146
	c26.072-13.146,48.25-25.736,67.693-38.299c21.505,24.132,52.714,39.44,87.505,39.44c64.698,0,117.333-52.635,117.333-117.333
	C490.669,339.996,453.031,294.074,402.344,281.111z"/>
<g>
</g>
<g>
</g>
<g>
</g>
<g>
</g>
<g>
</g>
<g>
</g>
<g>
</g>
<g>
</g>
<g>
</g>
<g>
</g>
<g>
</g>
<g>
</g>
<g>
</g>
<g>
</g>
<g>
</g>
</svg>
